<?xml version='1.0' encoding='UTF-8'?>
<svg width="58.8mm" height="58.8mm" version="1.1" viewBox="0 0 58.8 58.8" xmlns="http://www.w3.org/2000/svg"><path d="M4.8,4.8H6V6H4.8zM6,4.8H7.2V6H6zM7.2,4.8H8.4V6H7.2zM8.4,4.8H9.6V6H8.4zM9.6,4.8H10.8V6H9.6zM10.8,4.8H12V6H10.8zM12,4.8H13.2V6H12zM16.8,4.8H18V6H16.8zM18,4.8H19.2V6H18zM19.2,4.8H20.4V6H19.2zM21.6,4.8H22.8V6H21.6zM22.8,4.8H24V6H22.8zM25.2,4.8H26.4V6H25.2zM26.4,4.8H27.6V6H26.4zM28.8,4.8H30V6H28.8zM30,4.8H31.2V6H30zM31.2,4.8H32.4V6H31.2zM32.4,4.8H33.6V6H32.4zM33.6,4.8H34.8V6H33.6zM34.8,4.8H36V6H34.8zM36,4.8H37.2V6H36zM45.6,4.8H46.8V6H45.6zM46.8,4.8H48V6H46.8zM48,4.8H49.2V6H48zM49.2,4.8H50.4V6H49.2zM50.4,4.8H51.6V6H50.4zM51.6,4.8H52.8V6H51.6zM52.8,4.8H54V6H52.8zM4.8,6H6V7.2H4.8zM12,6H13.2V7.2H12zM16.8,6H18V7.2H16.8zM19.2,6H20.4V7.2H19.2zM21.6,6H22.8V7.2H21.6zM22.8,6H24V7.2H22.8zM24,6H25.2V7.2H24zM26.4,6H27.6V7.2H26.4zM28.8,6H30V7.2H28.8zM30,6H31.2V7.2H30zM31.2,6H32.4V7.2H31.2zM33.6,6H34.8V7.2H33.6zM34.8,6H36V7.2H34.8zM36,6H37.2V7.2H36zM39.6,6H40.8V7.2H39.6zM42,6H43.2V7.2H42zM45.6,6H46.8V7.2H45.6zM52.8,6H54V7.2H52.8zM4.8,7.2H6V8.4H4.8zM7.2,7.2H8.4V8.4H7.2zM8.4,7.2H9.6V8.4H8.4zM9.6,7.2H10.8V8.4H9.6zM12,7.2H13.2V8.4H12zM14.4,7.2H15.6V8.4H14.4zM15.6,7.2H16.8V8.4H15.6zM16.8,7.2H18V8.4H16.8zM18,7.2H19.2V8.4H18zM19.2,7.2H20.4V8.4H19.2zM21.6,7.2H22.8V8.4H21.6zM25.2,7.2H26.4V8.4H25.2zM26.4,7.2H27.6V8.4H26.4zM27.6,7.2H28.8V8.4H27.6zM30,7.2H31.2V8.4H30zM33.6,7.2H34.8V8.4H33.6zM34.8,7.2H36V8.4H34.8zM36,7.2H37.2V8.4H36zM39.6,7.2H40.8V8.4H39.6zM40.8,7.2H42V8.4H40.8zM42,7.2H43.2V8.4H42zM43.2,7.2H44.4V8.4H43.2zM45.6,7.2H46.8V8.4H45.6zM48,7.2H49.2V8.4H48zM49.2,7.2H50.4V8.4H49.2zM50.4,7.2H51.6V8.4H50.4zM52.8,7.2H54V8.4H52.8zM4.8,8.4H6V9.6H4.8zM7.2,8.4H8.4V9.6H7.2zM8.4,8.4H9.6V9.6H8.4zM9.6,8.4H10.8V9.6H9.6zM12,8.4H13.2V9.6H12zM14.4,8.4H15.6V9.6H14.4zM15.6,8.4H16.8V9.6H15.6zM16.8,8.4H18V9.6H16.8zM18,8.4H19.2V9.6H18zM19.2,8.4H20.4V9.6H19.2zM21.6,8.4H22.8V9.6H21.6zM22.8,8.4H24V9.6H22.8zM24,8.4H25.2V9.6H24zM25.2,8.4H26.4V9.6H25.2zM31.2,8.4H32.4V9.6H31.2zM32.4,8.4H33.6V9.6H32.4zM36,8.4H37.2V9.6H36zM37.2,8.4H38.4V9.6H37.2zM43.2,8.4H44.4V9.6H43.2zM45.6,8.4H46.8V9.6H45.6zM48,8.4H49.2V9.6H48zM49.2,8.4H50.4V9.6H49.2zM50.4,8.4H51.6V9.6H50.4zM52.8,8.4H54V9.6H52.8zM4.8,9.6H6V10.8H4.8zM7.2,9.6H8.4V10.8H7.2zM8.4,9.6H9.6V10.8H8.4zM9.6,9.6H10.8V10.8H9.6zM12,9.6H13.2V10.8H12zM15.6,9.6H16.8V10.8H15.6zM16.8,9.6H18V10.8H16.8zM25.2,9.6H26.4V10.8H25.2zM33.6,9.6H34.8V10.8H33.6zM38.4,9.6H39.6V10.8H38.4zM40.8,9.6H42V10.8H40.8zM42,9.6H43.2V10.8H42zM45.6,9.6H46.8V10.8H45.6zM48,9.6H49.2V10.8H48zM49.2,9.6H50.4V10.8H49.2zM50.4,9.6H51.6V10.8H50.4zM52.8,9.6H54V10.8H52.8zM4.8,10.8H6V12H4.8zM12,10.8H13.2V12H12zM16.8,10.8H18V12H16.8zM20.4,10.8H21.6V12H20.4zM21.6,10.8H22.8V12H21.6zM26.4,10.8H27.6V12H26.4zM40.8,10.8H42V12H40.8zM43.2,10.8H44.4V12H43.2zM45.6,10.8H46.8V12H45.6zM52.8,10.8H54V12H52.8zM4.8,12H6V13.2H4.8zM6,12H7.2V13.2H6zM7.2,12H8.4V13.2H7.2zM8.4,12H9.6V13.2H8.4zM9.6,12H10.8V13.2H9.6zM10.8,12H12V13.2H10.8zM12,12H13.2V13.2H12zM14.4,12H15.6V13.2H14.4zM16.8,12H18V13.2H16.8zM19.2,12H20.4V13.2H19.2zM21.6,12H22.8V13.2H21.6zM24,12H25.2V13.2H24zM26.4,12H27.6V13.2H26.4zM28.8,12H30V13.2H28.8zM31.2,12H32.4V13.2H31.2zM33.6,12H34.8V13.2H33.6zM36,12H37.2V13.2H36zM38.4,12H39.6V13.2H38.4zM40.8,12H42V13.2H40.8zM43.2,12H44.4V13.2H43.2zM45.6,12H46.8V13.2H45.6zM46.8,12H48V13.2H46.8zM48,12H49.2V13.2H48zM49.2,12H50.4V13.2H49.2zM50.4,12H51.6V13.2H50.4zM51.6,12H52.8V13.2H51.6zM52.8,12H54V13.2H52.8zM15.6,13.2H16.8V14.4H15.6zM20.4,13.2H21.6V14.4H20.4zM26.4,13.2H27.6V14.4H26.4zM27.6,13.2H28.8V14.4H27.6zM30,13.2H31.2V14.4H30zM36,13.2H37.2V14.4H36zM38.4,13.2H39.6V14.4H38.4zM40.8,13.2H42V14.4H40.8zM42,13.2H43.2V14.4H42zM8.4,14.4H9.6V15.6H8.4zM9.6,14.4H10.8V15.6H9.6zM12,14.4H13.2V15.6H12zM13.2,14.4H14.4V15.6H13.2zM16.8,14.4H18V15.6H16.8zM18,14.4H19.2V15.6H18zM20.4,14.4H21.6V15.6H20.4zM21.6,14.4H22.8V15.6H21.6zM24,14.4H25.2V15.6H24zM25.2,14.4H26.4V15.6H25.2zM26.4,14.4H27.6V15.6H26.4zM30,14.4H31.2V15.6H30zM31.2,14.4H32.4V15.6H31.2zM32.4,14.4H33.6V15.6H32.4zM33.6,14.4H34.8V15.6H33.6zM34.8,14.4H36V15.6H34.8zM36,14.4H37.2V15.6H36zM37.2,14.4H38.4V15.6H37.2zM39.6,14.4H40.8V15.6H39.6zM49.2,14.4H50.4V15.6H49.2zM50.4,14.4H51.6V15.6H50.4zM4.8,15.6H6V16.8H4.8zM6,15.6H7.2V16.8H6zM9.6,15.6H10.8V16.8H9.6zM14.4,15.6H15.6V16.8H14.4zM15.6,15.6H16.8V16.8H15.6zM16.8,15.6H18V16.8H16.8zM18,15.6H19.2V16.8H18zM20.4,15.6H21.6V16.8H20.4zM24,15.6H25.2V16.8H24zM25.2,15.6H26.4V16.8H25.2zM28.8,15.6H30V16.8H28.8zM30,15.6H31.2V16.8H30zM32.4,15.6H33.6V16.8H32.4zM33.6,15.6H34.8V16.8H33.6zM34.8,15.6H36V16.8H34.8zM37.2,15.6H38.4V16.8H37.2zM40.8,15.6H42V16.8H40.8zM42,15.6H43.2V16.8H42zM46.8,15.6H48V16.8H46.8zM48,15.6H49.2V16.8H48zM51.6,15.6H52.8V16.8H51.6zM4.8,16.8H6V18H4.8zM6,16.8H7.2V18H6zM7.2,16.8H8.4V18H7.2zM8.4,16.8H9.6V18H8.4zM9.6,16.8H10.8V18H9.6zM12,16.8H13.2V18H12zM15.6,16.8H16.8V18H15.6zM16.8,16.8H18V18H16.8zM20.4,16.8H21.6V18H20.4zM21.6,16.8H22.8V18H21.6zM25.2,16.8H26.4V18H25.2zM26.4,16.8H27.6V18H26.4zM31.2,16.8H32.4V18H31.2zM32.4,16.8H33.6V18H32.4zM37.2,16.8H38.4V18H37.2zM38.4,16.8H39.6V18H38.4zM40.8,16.8H42V18H40.8zM45.6,16.8H46.8V18H45.6zM46.8,16.8H48V18H46.8zM50.4,16.8H51.6V18H50.4zM6,18H7.2V19.2H6zM8.4,18H9.6V19.2H8.4zM9.6,18H10.8V19.2H9.6zM14.4,18H15.6V19.2H14.4zM19.2,18H20.4V19.2H19.2zM21.6,18H22.8V19.2H21.6zM22.8,18H24V19.2H22.8zM24,18H25.2V19.2H24zM26.4,18H27.6V19.2H26.4zM27.6,18H28.8V19.2H27.6zM28.8,18H30V19.2H28.8zM31.2,18H32.4V19.2H31.2zM33.6,18H34.8V19.2H33.6zM34.8,18H36V19.2H34.8zM36,18H37.2V19.2H36zM38.4,18H39.6V19.2H38.4zM39.6,18H40.8V19.2H39.6zM42,18H43.2V19.2H42zM43.2,18H44.4V19.2H43.2zM46.8,18H48V19.2H46.8zM48,18H49.2V19.2H48zM49.2,18H50.4V19.2H49.2zM52.8,18H54V19.2H52.8zM4.8,19.2H6V20.4H4.8zM6,19.2H7.2V20.4H6zM8.4,19.2H9.6V20.4H8.4zM10.8,19.2H12V20.4H10.8zM12,19.2H13.2V20.4H12zM13.2,19.2H14.4V20.4H13.2zM14.4,19.2H15.6V20.4H14.4zM19.2,19.2H20.4V20.4H19.2zM22.8,19.2H24V20.4H22.8zM25.2,19.2H26.4V20.4H25.2zM28.8,19.2H30V20.4H28.8zM30,19.2H31.2V20.4H30zM31.2,19.2H32.4V20.4H31.2zM32.4,19.2H33.6V20.4H32.4zM33.6,19.2H34.8V20.4H33.6zM34.8,19.2H36V20.4H34.8zM38.4,19.2H39.6V20.4H38.4zM46.8,19.2H48V20.4H46.8zM51.6,19.2H52.8V20.4H51.6zM52.8,19.2H54V20.4H52.8zM7.2,20.4H8.4V21.6H7.2zM10.8,20.4H12V21.6H10.8zM14.4,20.4H15.6V21.6H14.4zM16.8,20.4H18V21.6H16.8zM18,20.4H19.2V21.6H18zM19.2,20.4H20.4V21.6H19.2zM22.8,20.4H24V21.6H22.8zM25.2,20.4H26.4V21.6H25.2zM26.4,20.4H27.6V21.6H26.4zM27.6,20.4H28.8V21.6H27.6zM30,20.4H31.2V21.6H30zM31.2,20.4H32.4V21.6H31.2zM33.6,20.4H34.8V21.6H33.6zM34.8,20.4H36V21.6H34.8zM38.4,20.4H39.6V21.6H38.4zM40.8,20.4H42V21.6H40.8zM42,20.4H43.2V21.6H42zM43.2,20.4H44.4V21.6H43.2zM46.8,20.4H48V21.6H46.8zM48,20.4H49.2V21.6H48zM49.2,20.4H50.4V21.6H49.2zM50.4,20.4H51.6V21.6H50.4zM51.6,20.4H52.8V21.6H51.6zM52.8,20.4H54V21.6H52.8zM4.8,21.6H6V22.8H4.8zM8.4,21.6H9.6V22.8H8.4zM9.6,21.6H10.8V22.8H9.6zM10.8,21.6H12V22.8H10.8zM12,21.6H13.2V22.8H12zM16.8,21.6H18V22.8H16.8zM18,21.6H19.2V22.8H18zM19.2,21.6H20.4V22.8H19.2zM20.4,21.6H21.6V22.8H20.4zM22.8,21.6H24V22.8H22.8zM24,21.6H25.2V22.8H24zM25.2,21.6H26.4V22.8H25.2zM34.8,21.6H36V22.8H34.8zM36,21.6H37.2V22.8H36zM38.4,21.6H39.6V22.8H38.4zM39.6,21.6H40.8V22.8H39.6zM40.8,21.6H42V22.8H40.8zM42,21.6H43.2V22.8H42zM43.2,21.6H44.4V22.8H43.2zM44.4,21.6H45.6V22.8H44.4zM45.6,21.6H46.8V22.8H45.6zM46.8,21.6H48V22.8H46.8zM48,21.6H49.2V22.8H48zM50.4,21.6H51.6V22.8H50.4zM52.8,21.6H54V22.8H52.8zM4.8,22.8H6V24H4.8zM7.2,22.8H8.4V24H7.2zM10.8,22.8H12V24H10.8zM13.2,22.8H14.4V24H13.2zM15.6,22.8H16.8V24H15.6zM16.8,22.8H18V24H16.8zM19.2,22.8H20.4V24H19.2zM20.4,22.8H21.6V24H20.4zM21.6,22.8H22.8V24H21.6zM22.8,22.8H24V24H22.8zM27.6,22.8H28.8V24H27.6zM30,22.8H31.2V24H30zM32.4,22.8H33.6V24H32.4zM33.6,22.8H34.8V24H33.6zM36,22.8H37.2V24H36zM37.2,22.8H38.4V24H37.2zM40.8,22.8H42V24H40.8zM43.2,22.8H44.4V24H43.2zM44.4,22.8H45.6V24H44.4zM46.8,22.8H48V24H46.8zM49.2,22.8H50.4V24H49.2zM50.4,22.8H51.6V24H50.4zM51.6,22.8H52.8V24H51.6zM52.8,22.8H54V24H52.8zM4.8,24H6V25.2H4.8zM12,24H13.2V25.2H12zM13.2,24H14.4V25.2H13.2zM14.4,24H15.6V25.2H14.4zM15.6,24H16.8V25.2H15.6zM16.8,24H18V25.2H16.8zM24,24H25.2V25.2H24zM27.6,24H28.8V25.2H27.6zM33.6,24H34.8V25.2H33.6zM43.2,24H44.4V25.2H43.2zM44.4,24H45.6V25.2H44.4zM52.8,24H54V25.2H52.8zM6,25.2H7.2V26.4H6zM8.4,25.2H9.6V26.4H8.4zM10.8,25.2H12V26.4H10.8zM18,25.2H19.2V26.4H18zM19.2,25.2H20.4V26.4H19.2zM20.4,25.2H21.6V26.4H20.4zM21.6,25.2H22.8V26.4H21.6zM26.4,25.2H27.6V26.4H26.4zM27.6,25.2H28.8V26.4H27.6zM28.8,25.2H30V26.4H28.8zM33.6,25.2H34.8V26.4H33.6zM36,25.2H37.2V26.4H36zM37.2,25.2H38.4V26.4H37.2zM38.4,25.2H39.6V26.4H38.4zM39.6,25.2H40.8V26.4H39.6zM40.8,25.2H42V26.4H40.8zM42,25.2H43.2V26.4H42zM43.2,25.2H44.4V26.4H43.2zM44.4,25.2H45.6V26.4H44.4zM48,25.2H49.2V26.4H48zM4.8,26.4H6V27.6H4.8zM7.2,26.4H8.4V27.6H7.2zM8.4,26.4H9.6V27.6H8.4zM9.6,26.4H10.8V27.6H9.6zM10.8,26.4H12V27.6H10.8zM12,26.4H13.2V27.6H12zM13.2,26.4H14.4V27.6H13.2zM14.4,26.4H15.6V27.6H14.4zM15.6,26.4H16.8V27.6H15.6zM16.8,26.4H18V27.6H16.8zM18,26.4H19.2V27.6H18zM21.6,26.4H22.8V27.6H21.6zM26.4,26.4H27.6V27.6H26.4zM27.6,26.4H28.8V27.6H27.6zM28.8,26.4H30V27.6H28.8zM30,26.4H31.2V27.6H30zM37.2,26.4H38.4V27.6H37.2zM38.4,26.4H39.6V27.6H38.4zM39.6,26.4H40.8V27.6H39.6zM40.8,26.4H42V27.6H40.8zM42,26.4H43.2V27.6H42zM43.2,26.4H44.4V27.6H43.2zM44.4,26.4H45.6V27.6H44.4zM45.6,26.4H46.8V27.6H45.6zM46.8,26.4H48V27.6H46.8zM48,26.4H49.2V27.6H48zM49.2,26.4H50.4V27.6H49.2zM50.4,26.4H51.6V27.6H50.4zM52.8,26.4H54V27.6H52.8zM8.4,27.6H9.6V28.8H8.4zM10.8,27.6H12V28.8H10.8zM14.4,27.6H15.6V28.8H14.4zM16.8,27.6H18V28.8H16.8zM18,27.6H19.2V28.8H18zM20.4,27.6H21.6V28.8H20.4zM22.8,27.6H24V28.8H22.8zM25.2,27.6H26.4V28.8H25.2zM27.6,27.6H28.8V28.8H27.6zM28.8,27.6H30V28.8H28.8zM30,27.6H31.2V28.8H30zM32.4,27.6H33.6V28.8H32.4zM34.8,27.6H36V28.8H34.8zM38.4,27.6H39.6V28.8H38.4zM44.4,27.6H45.6V28.8H44.4zM48,27.6H49.2V28.8H48zM50.4,27.6H51.6V28.8H50.4zM51.6,27.6H52.8V28.8H51.6zM4.8,28.8H6V30H4.8zM6,28.8H7.2V30H6zM8.4,28.8H9.6V30H8.4zM9.6,28.8H10.8V30H9.6zM12,28.8H13.2V30H12zM13.2,28.8H14.4V30H13.2zM15.6,28.8H16.8V30H15.6zM16.8,28.8H18V30H16.8zM18,28.8H19.2V30H18zM19.2,28.8H20.4V30H19.2zM21.6,28.8H22.8V30H21.6zM24,28.8H25.2V30H24zM26.4,28.8H27.6V30H26.4zM31.2,28.8H32.4V30H31.2zM34.8,28.8H36V30H34.8zM38.4,28.8H39.6V30H38.4zM40.8,28.8H42V30H40.8zM42,28.8H43.2V30H42zM45.6,28.8H46.8V30H45.6zM48,28.8H49.2V30H48zM49.2,28.8H50.4V30H49.2zM50.4,28.8H51.6V30H50.4zM13.2,30H14.4V31.2H13.2zM15.6,30H16.8V31.2H15.6zM19.2,30H20.4V31.2H19.2zM20.4,30H21.6V31.2H20.4zM21.6,30H22.8V31.2H21.6zM22.8,30H24V31.2H22.8zM25.2,30H26.4V31.2H25.2zM27.6,30H28.8V31.2H27.6zM28.8,30H30V31.2H28.8zM31.2,30H32.4V31.2H31.2zM34.8,30H36V31.2H34.8zM37.2,30H38.4V31.2H37.2zM42,30H43.2V31.2H42zM43.2,30H44.4V31.2H43.2zM48,30H49.2V31.2H48zM50.4,30H51.6V31.2H50.4zM6,31.2H7.2V32.4H6zM8.4,31.2H9.6V32.4H8.4zM9.6,31.2H10.8V32.4H9.6zM12,31.2H13.2V32.4H12zM18,31.2H19.2V32.4H18zM19.2,31.2H20.4V32.4H19.2zM20.4,31.2H21.6V32.4H20.4zM24,31.2H25.2V32.4H24zM26.4,31.2H27.6V32.4H26.4zM27.6,31.2H28.8V32.4H27.6zM30,31.2H31.2V32.4H30zM37.2,31.2H38.4V32.4H37.2zM39.6,31.2H40.8V32.4H39.6zM40.8,31.2H42V32.4H40.8zM43.2,31.2H44.4V32.4H43.2zM45.6,31.2H46.8V32.4H45.6zM50.4,31.2H51.6V32.4H50.4zM8.4,32.4H9.6V33.6H8.4zM9.6,32.4H10.8V33.6H9.6zM13.2,32.4H14.4V33.6H13.2zM16.8,32.4H18V33.6H16.8zM20.4,32.4H21.6V33.6H20.4zM25.2,32.4H26.4V33.6H25.2zM27.6,32.4H28.8V33.6H27.6zM28.8,32.4H30V33.6H28.8zM30,32.4H31.2V33.6H30zM31.2,32.4H32.4V33.6H31.2zM32.4,32.4H33.6V33.6H32.4zM33.6,32.4H34.8V33.6H33.6zM34.8,32.4H36V33.6H34.8zM39.6,32.4H40.8V33.6H39.6zM43.2,32.4H44.4V33.6H43.2zM45.6,32.4H46.8V33.6H45.6zM46.8,32.4H48V33.6H46.8zM48,32.4H49.2V33.6H48zM52.8,32.4H54V33.6H52.8zM4.8,33.6H6V34.8H4.8zM6,33.6H7.2V34.8H6zM7.2,33.6H8.4V34.8H7.2zM10.8,33.6H12V34.8H10.8zM12,33.6H13.2V34.8H12zM13.2,33.6H14.4V34.8H13.2zM15.6,33.6H16.8V34.8H15.6zM18,33.6H19.2V34.8H18zM22.8,33.6H24V34.8H22.8zM24,33.6H25.2V34.8H24zM25.2,33.6H26.4V34.8H25.2zM27.6,33.6H28.8V34.8H27.6zM32.4,33.6H33.6V34.8H32.4zM34.8,33.6H36V34.8H34.8zM36,33.6H37.2V34.8H36zM37.2,33.6H38.4V34.8H37.2zM38.4,33.6H39.6V34.8H38.4zM42,33.6H43.2V34.8H42zM43.2,33.6H44.4V34.8H43.2zM44.4,33.6H45.6V34.8H44.4zM45.6,33.6H46.8V34.8H45.6zM49.2,33.6H50.4V34.8H49.2zM51.6,33.6H52.8V34.8H51.6zM52.8,33.6H54V34.8H52.8zM6,34.8H7.2V36H6zM9.6,34.8H10.8V36H9.6zM10.8,34.8H12V36H10.8zM14.4,34.8H15.6V36H14.4zM15.6,34.8H16.8V36H15.6zM20.4,34.8H21.6V36H20.4zM25.2,34.8H26.4V36H25.2zM26.4,34.8H27.6V36H26.4zM27.6,34.8H28.8V36H27.6zM28.8,34.8H30V36H28.8zM30,34.8H31.2V36H30zM32.4,34.8H33.6V36H32.4zM34.8,34.8H36V36H34.8zM37.2,34.8H38.4V36H37.2zM38.4,34.8H39.6V36H38.4zM43.2,34.8H44.4V36H43.2zM45.6,34.8H46.8V36H45.6zM46.8,34.8H48V36H46.8zM48,34.8H49.2V36H48zM50.4,34.8H51.6V36H50.4zM51.6,34.8H52.8V36H51.6zM52.8,34.8H54V36H52.8zM4.8,36H6V37.2H4.8zM7.2,36H8.4V37.2H7.2zM8.4,36H9.6V37.2H8.4zM9.6,36H10.8V37.2H9.6zM10.8,36H12V37.2H10.8zM12,36H13.2V37.2H12zM15.6,36H16.8V37.2H15.6zM18,36H19.2V37.2H18zM19.2,36H20.4V37.2H19.2zM20.4,36H21.6V37.2H20.4zM25.2,36H26.4V37.2H25.2zM27.6,36H28.8V37.2H27.6zM30,36H31.2V37.2H30zM31.2,36H32.4V37.2H31.2zM32.4,36H33.6V37.2H32.4zM33.6,36H34.8V37.2H33.6zM37.2,36H38.4V37.2H37.2zM38.4,36H39.6V37.2H38.4zM42,36H43.2V37.2H42zM43.2,36H44.4V37.2H43.2zM44.4,36H45.6V37.2H44.4zM45.6,36H46.8V37.2H45.6zM46.8,36H48V37.2H46.8zM48,36H49.2V37.2H48zM49.2,36H50.4V37.2H49.2zM52.8,36H54V37.2H52.8zM16.8,37.2H18V38.4H16.8zM19.2,37.2H20.4V38.4H19.2zM24,37.2H25.2V38.4H24zM25.2,37.2H26.4V38.4H25.2zM28.8,37.2H30V38.4H28.8zM30,37.2H31.2V38.4H30zM31.2,37.2H32.4V38.4H31.2zM32.4,37.2H33.6V38.4H32.4zM33.6,37.2H34.8V38.4H33.6zM34.8,37.2H36V38.4H34.8zM36,37.2H37.2V38.4H36zM37.2,37.2H38.4V38.4H37.2zM42,37.2H43.2V38.4H42zM44.4,37.2H45.6V38.4H44.4zM45.6,37.2H46.8V38.4H45.6zM48,37.2H49.2V38.4H48zM49.2,37.2H50.4V38.4H49.2zM50.4,37.2H51.6V38.4H50.4zM51.6,37.2H52.8V38.4H51.6zM52.8,37.2H54V38.4H52.8zM7.2,38.4H8.4V39.6H7.2zM8.4,38.4H9.6V39.6H8.4zM10.8,38.4H12V39.6H10.8zM12,38.4H13.2V39.6H12zM13.2,38.4H14.4V39.6H13.2zM18,38.4H19.2V39.6H18zM19.2,38.4H20.4V39.6H19.2zM20.4,38.4H21.6V39.6H20.4zM22.8,38.4H24V39.6H22.8zM25.2,38.4H26.4V39.6H25.2zM28.8,38.4H30V39.6H28.8zM30,38.4H31.2V39.6H30zM32.4,38.4H33.6V39.6H32.4zM33.6,38.4H34.8V39.6H33.6zM34.8,38.4H36V39.6H34.8zM37.2,38.4H38.4V39.6H37.2zM38.4,38.4H39.6V39.6H38.4zM42,38.4H43.2V39.6H42zM43.2,38.4H44.4V39.6H43.2zM44.4,38.4H45.6V39.6H44.4zM46.8,38.4H48V39.6H46.8zM49.2,38.4H50.4V39.6H49.2zM51.6,38.4H52.8V39.6H51.6zM4.8,39.6H6V40.8H4.8zM7.2,39.6H8.4V40.8H7.2zM8.4,39.6H9.6V40.8H8.4zM13.2,39.6H14.4V40.8H13.2zM15.6,39.6H16.8V40.8H15.6zM16.8,39.6H18V40.8H16.8zM20.4,39.6H21.6V40.8H20.4zM21.6,39.6H22.8V40.8H21.6zM22.8,39.6H24V40.8H22.8zM24,39.6H25.2V40.8H24zM25.2,39.6H26.4V40.8H25.2zM26.4,39.6H27.6V40.8H26.4zM31.2,39.6H32.4V40.8H31.2zM32.4,39.6H33.6V40.8H32.4zM34.8,39.6H36V40.8H34.8zM36,39.6H37.2V40.8H36zM38.4,39.6H39.6V40.8H38.4zM39.6,39.6H40.8V40.8H39.6zM40.8,39.6H42V40.8H40.8zM43.2,39.6H44.4V40.8H43.2zM44.4,39.6H45.6V40.8H44.4zM45.6,39.6H46.8V40.8H45.6zM48,39.6H49.2V40.8H48zM49.2,39.6H50.4V40.8H49.2zM50.4,39.6H51.6V40.8H50.4zM4.8,40.8H6V42H4.8zM6,40.8H7.2V42H6zM8.4,40.8H9.6V42H8.4zM9.6,40.8H10.8V42H9.6zM12,40.8H13.2V42H12zM14.4,40.8H15.6V42H14.4zM15.6,40.8H16.8V42H15.6zM16.8,40.8H18V42H16.8zM18,40.8H19.2V42H18zM21.6,40.8H22.8V42H21.6zM22.8,40.8H24V42H22.8zM24,40.8H25.2V42H24zM27.6,40.8H28.8V42H27.6zM28.8,40.8H30V42H28.8zM32.4,40.8H33.6V42H32.4zM34.8,40.8H36V42H34.8zM37.2,40.8H38.4V42H37.2zM40.8,40.8H42V42H40.8zM43.2,40.8H44.4V42H43.2zM44.4,40.8H45.6V42H44.4zM48,40.8H49.2V42H48zM51.6,40.8H52.8V42H51.6zM52.8,40.8H54V42H52.8zM4.8,42H6V43.2H4.8zM6,42H7.2V43.2H6zM7.2,42H8.4V43.2H7.2zM8.4,42H9.6V43.2H8.4zM10.8,42H12V43.2H10.8zM16.8,42H18V43.2H16.8zM18,42H19.2V43.2H18zM19.2,42H20.4V43.2H19.2zM24,42H25.2V43.2H24zM25.2,42H26.4V43.2H25.2zM26.4,42H27.6V43.2H26.4zM27.6,42H28.8V43.2H27.6zM28.8,42H30V43.2H28.8zM32.4,42H33.6V43.2H32.4zM33.6,42H34.8V43.2H33.6zM34.8,42H36V43.2H34.8zM36,42H37.2V43.2H36zM45.6,42H46.8V43.2H45.6zM46.8,42H48V43.2H46.8zM50.4,42H51.6V43.2H50.4zM52.8,42H54V43.2H52.8zM4.8,43.2H6V44.4H4.8zM6,43.2H7.2V44.4H6zM9.6,43.2H10.8V44.4H9.6zM12,43.2H13.2V44.4H12zM14.4,43.2H15.6V44.4H14.4zM15.6,43.2H16.8V44.4H15.6zM16.8,43.2H18V44.4H16.8zM20.4,43.2H21.6V44.4H20.4zM21.6,43.2H22.8V44.4H21.6zM24,43.2H25.2V44.4H24zM26.4,43.2H27.6V44.4H26.4zM27.6,43.2H28.8V44.4H27.6zM28.8,43.2H30V44.4H28.8zM30,43.2H31.2V44.4H30zM36,43.2H37.2V44.4H36zM37.2,43.2H38.4V44.4H37.2zM38.4,43.2H39.6V44.4H38.4zM39.6,43.2H40.8V44.4H39.6zM43.2,43.2H44.4V44.4H43.2zM44.4,43.2H45.6V44.4H44.4zM45.6,43.2H46.8V44.4H45.6zM46.8,43.2H48V44.4H46.8zM48,43.2H49.2V44.4H48zM49.2,43.2H50.4V44.4H49.2zM50.4,43.2H51.6V44.4H50.4zM51.6,43.2H52.8V44.4H51.6zM52.8,43.2H54V44.4H52.8zM14.4,44.4H15.6V45.6H14.4zM16.8,44.4H18V45.6H16.8zM18,44.4H19.2V45.6H18zM19.2,44.4H20.4V45.6H19.2zM20.4,44.4H21.6V45.6H20.4zM21.6,44.4H22.8V45.6H21.6zM22.8,44.4H24V45.6H22.8zM24,44.4H25.2V45.6H24zM25.2,44.4H26.4V45.6H25.2zM26.4,44.4H27.6V45.6H26.4zM28.8,44.4H30V45.6H28.8zM30,44.4H31.2V45.6H30zM32.4,44.4H33.6V45.6H32.4zM33.6,44.4H34.8V45.6H33.6zM37.2,44.4H38.4V45.6H37.2zM39.6,44.4H40.8V45.6H39.6zM40.8,44.4H42V45.6H40.8zM42,44.4H43.2V45.6H42zM43.2,44.4H44.4V45.6H43.2zM48,44.4H49.2V45.6H48zM49.2,44.4H50.4V45.6H49.2zM50.4,44.4H51.6V45.6H50.4zM4.8,45.6H6V46.8H4.8zM6,45.6H7.2V46.8H6zM7.2,45.6H8.4V46.8H7.2zM8.4,45.6H9.6V46.8H8.4zM9.6,45.6H10.8V46.8H9.6zM10.8,45.6H12V46.8H10.8zM12,45.6H13.2V46.8H12zM14.4,45.6H15.6V46.8H14.4zM15.6,45.6H16.8V46.8H15.6zM18,45.6H19.2V46.8H18zM21.6,45.6H22.8V46.8H21.6zM22.8,45.6H24V46.8H22.8zM24,45.6H25.2V46.8H24zM26.4,45.6H27.6V46.8H26.4zM32.4,45.6H33.6V46.8H32.4zM34.8,45.6H36V46.8H34.8zM36,45.6H37.2V46.8H36zM37.2,45.6H38.4V46.8H37.2zM38.4,45.6H39.6V46.8H38.4zM42,45.6H43.2V46.8H42zM43.2,45.6H44.4V46.8H43.2zM45.6,45.6H46.8V46.8H45.6zM48,45.6H49.2V46.8H48zM49.2,45.6H50.4V46.8H49.2zM50.4,45.6H51.6V46.8H50.4zM51.6,45.6H52.8V46.8H51.6zM4.8,46.8H6V48H4.8zM12,46.8H13.2V48H12zM15.6,46.8H16.8V48H15.6zM18,46.8H19.2V48H18zM19.2,46.8H20.4V48H19.2zM22.8,46.8H24V48H22.8zM26.4,46.8H27.6V48H26.4zM30,46.8H31.2V48H30zM31.2,46.8H32.4V48H31.2zM32.4,46.8H33.6V48H32.4zM33.6,46.8H34.8V48H33.6zM36,46.8H37.2V48H36zM40.8,46.8H42V48H40.8zM42,46.8H43.2V48H42zM43.2,46.8H44.4V48H43.2zM48,46.8H49.2V48H48zM49.2,46.8H50.4V48H49.2zM51.6,46.8H52.8V48H51.6zM4.8,48H6V49.2H4.8zM7.2,48H8.4V49.2H7.2zM8.4,48H9.6V49.2H8.4zM9.6,48H10.8V49.2H9.6zM12,48H13.2V49.2H12zM14.4,48H15.6V49.2H14.4zM15.6,48H16.8V49.2H15.6zM20.4,48H21.6V49.2H20.4zM22.8,48H24V49.2H22.8zM25.2,48H26.4V49.2H25.2zM26.4,48H27.6V49.2H26.4zM28.8,48H30V49.2H28.8zM31.2,48H32.4V49.2H31.2zM33.6,48H34.8V49.2H33.6zM37.2,48H38.4V49.2H37.2zM39.6,48H40.8V49.2H39.6zM42,48H43.2V49.2H42zM43.2,48H44.4V49.2H43.2zM44.4,48H45.6V49.2H44.4zM45.6,48H46.8V49.2H45.6zM46.8,48H48V49.2H46.8zM48,48H49.2V49.2H48zM49.2,48H50.4V49.2H49.2zM51.6,48H52.8V49.2H51.6zM52.8,48H54V49.2H52.8zM4.8,49.2H6V50.4H4.8zM7.2,49.2H8.4V50.4H7.2zM8.4,49.2H9.6V50.4H8.4zM9.6,49.2H10.8V50.4H9.6zM12,49.2H13.2V50.4H12zM14.4,49.2H15.6V50.4H14.4zM15.6,49.2H16.8V50.4H15.6zM22.8,49.2H24V50.4H22.8zM24,49.2H25.2V50.4H24zM26.4,49.2H27.6V50.4H26.4zM30,49.2H31.2V50.4H30zM31.2,49.2H32.4V50.4H31.2zM33.6,49.2H34.8V50.4H33.6zM34.8,49.2H36V50.4H34.8zM37.2,49.2H38.4V50.4H37.2zM38.4,49.2H39.6V50.4H38.4zM40.8,49.2H42V50.4H40.8zM42,49.2H43.2V50.4H42zM46.8,49.2H48V50.4H46.8zM51.6,49.2H52.8V50.4H51.6zM52.8,49.2H54V50.4H52.8zM4.8,50.4H6V51.6H4.8zM7.2,50.4H8.4V51.6H7.2zM8.4,50.4H9.6V51.6H8.4zM9.6,50.4H10.8V51.6H9.6zM12,50.4H13.2V51.6H12zM15.6,50.4H16.8V51.6H15.6zM16.8,50.4H18V51.6H16.8zM18,50.4H19.2V51.6H18zM19.2,50.4H20.4V51.6H19.2zM20.4,50.4H21.6V51.6H20.4zM21.6,50.4H22.8V51.6H21.6zM28.8,50.4H30V51.6H28.8zM32.4,50.4H33.6V51.6H32.4zM33.6,50.4H34.8V51.6H33.6zM34.8,50.4H36V51.6H34.8zM37.2,50.4H38.4V51.6H37.2zM38.4,50.4H39.6V51.6H38.4zM39.6,50.4H40.8V51.6H39.6zM40.8,50.4H42V51.6H40.8zM43.2,50.4H44.4V51.6H43.2zM44.4,50.4H45.6V51.6H44.4zM46.8,50.4H48V51.6H46.8zM48,50.4H49.2V51.6H48zM50.4,50.4H51.6V51.6H50.4zM51.6,50.4H52.8V51.6H51.6zM52.8,50.4H54V51.6H52.8zM4.8,51.6H6V52.8H4.8zM12,51.6H13.2V52.8H12zM20.4,51.6H21.6V52.8H20.4zM21.6,51.6H22.8V52.8H21.6zM22.8,51.6H24V52.8H22.8zM24,51.6H25.2V52.8H24zM26.4,51.6H27.6V52.8H26.4zM28.8,51.6H30V52.8H28.8zM30,51.6H31.2V52.8H30zM32.4,51.6H33.6V52.8H32.4zM37.2,51.6H38.4V52.8H37.2zM40.8,51.6H42V52.8H40.8zM44.4,51.6H45.6V52.8H44.4zM48,51.6H49.2V52.8H48zM50.4,51.6H51.6V52.8H50.4zM52.8,51.6H54V52.8H52.8zM4.8,52.8H6V54H4.8zM6,52.8H7.2V54H6zM7.2,52.8H8.4V54H7.2zM8.4,52.8H9.6V54H8.4zM9.6,52.8H10.8V54H9.6zM10.8,52.8H12V54H10.8zM12,52.8H13.2V54H12zM15.6,52.8H16.8V54H15.6zM20.4,52.8H21.6V54H20.4zM22.8,52.8H24V54H22.8zM25.2,52.8H26.4V54H25.2zM26.4,52.8H27.6V54H26.4zM30,52.8H31.2V54H30zM31.2,52.8H32.4V54H31.2zM34.8,52.8H36V54H34.8zM36,52.8H37.2V54H36zM38.4,52.8H39.6V54H38.4zM42,52.8H43.2V54H42zM43.2,52.8H44.4V54H43.2zM44.4,52.8H45.6V54H44.4zM45.6,52.8H46.8V54H45.6zM48,52.8H49.2V54H48z" id="qr-path" fill="#000000" fill-opacity="1" fill-rule="nonzero" stroke="none" /></svg>