<?xml version="1.0" encoding="UTF-8"?>
<svg xmlns="http://www.w3.org/2000/svg" xmlns:xlink="http://www.w3.org/1999/xlink" viewBox="0 0 612 792" width="612px" height="792px" aria-labelledby="hostile-vehicle-title" role="img">
  <title id="hostile-vehicle-title">Hostile Scout Vehicle</title>
  <g id="layer-1" data-source="svg/Frames/0_615_0.svg">
<g id="frame">
	<polyline id="_x3C_path_x3E_" fill="#FF8080" stroke="#000000" stroke-width="5" stroke-linecap="square" points="306,568 479,395 
		306,222 133,395 306,568 	"/>
</g>
  </g>
  <g id="layer-2" data-source="svg/Appendices/Land/15120110.svg">
<g id="octagon" display="none">
	
		<line id="mod2_1_" display="inline" fill="none" stroke="#0000FF" stroke-width="2" x1="203.966" y1="445.015" x2="406.199" y2="445.295"/>
	
		<line id="mod1_1_" display="inline" fill="none" stroke="#0000FF" stroke-width="2" x1="203.966" y1="346.985" x2="406.199" y2="346.705"/>
	<g id="outFrame" display="inline">
		<line fill="none" stroke="#0000FF" stroke-width="2" x1="220" y1="309.5" x2="306" y2="273"/>
		<line fill="none" stroke="#0000FF" stroke-width="2" x1="306" y1="273" x2="390.5" y2="309.5"/>
		<line fill="none" stroke="#0000FF" stroke-width="2" x1="390.5" y1="309.5" x2="427" y2="396"/>
		<line fill="none" stroke="#0000FF" stroke-width="2" x1="427" y1="396" x2="390.5" y2="482.5"/>
		<line fill="none" stroke="#0000FF" stroke-width="2" x1="390.5" y1="482.5" x2="306" y2="516"/>
		<line fill="none" stroke="#0000FF" stroke-width="2" x1="306" y1="516" x2="220" y2="482.5"/>
		<line fill="none" stroke="#0000FF" stroke-width="2" x1="220" y1="482.5" x2="183" y2="396"/>
		<line fill="none" stroke="#0000FF" stroke-width="2" x1="183" y1="396" x2="220" y2="309.5"/>
	</g>
</g>
<g id="main">
	<line fill="none" stroke="#000000" stroke-width="5" x1="236" y1="323" x2="236" y2="433"/>
	<line fill="none" stroke="#000000" stroke-width="5" x1="376" y1="323" x2="376" y2="433"/>
	<ellipse fill="none" stroke="#000000" stroke-width="5" cx="236" cy="452" rx="13" ry="13"/>
	<ellipse fill="none" stroke="#000000" stroke-width="5" cx="306" cy="452" rx="13" ry="13"/>
	<ellipse fill="none" stroke="#000000" stroke-width="5" cx="376" cy="452" rx="13" ry="13"/>
	<line fill="none" stroke="#000000" stroke-width="5" x1="218" y1="435" x2="394" y2="435"/>
</g>
<polygon fill="none" stroke="#000000" stroke-width="5" points="373.75,377.156 306,327.137 237.75,377.156 305.75,429.834 "/>
  </g>
</svg>
